<?xml version="1.0" encoding="UTF-8" standalone="no"?>
<!-- Created with Inkscape (http://www.inkscape.org/) -->

<svg
   xmlns:dc="http://purl.org/dc/elements/1.1/"
   xmlns:cc="http://creativecommons.org/ns#"
   xmlns:rdf="http://www.w3.org/1999/02/22-rdf-syntax-ns#"
   xmlns:svg="http://www.w3.org/2000/svg"
   xmlns="http://www.w3.org/2000/svg"
   xmlns:sodipodi="http://sodipodi.sourceforge.net/DTD/sodipodi-0.dtd"
   xmlns:inkscape="http://www.inkscape.org/namespaces/inkscape"
   version="1.1"
   width="80"
   height="80"
   id="svg2837"
   inkscape:version="0.47 r22583"
   sodipodi:docname="scamp.svg">
  <metadata
     id="metadata3100">
    <rdf:RDF>
      <cc:Work
         rdf:about="">
        <dc:format>image/svg+xml</dc:format>
        <dc:type
           rdf:resource="http://purl.org/dc/dcmitype/StillImage" />
        <dc:title></dc:title>
      </cc:Work>
    </rdf:RDF>
  </metadata>
  <sodipodi:namedview
     pagecolor="#ffffff"
     bordercolor="#666666"
     borderopacity="1"
     objecttolerance="10"
     gridtolerance="10"
     guidetolerance="10"
     inkscape:pageopacity="0"
     inkscape:pageshadow="2"
     inkscape:window-width="1152"
     inkscape:window-height="781"
     id="namedview3098"
     showgrid="false"
     inkscape:zoom="2.95"
     inkscape:cx="40"
     inkscape:cy="40"
     inkscape:window-x="-4"
     inkscape:window-y="32"
     inkscape:window-maximized="1"
     inkscape:current-layer="layer1" />
  <defs
     id="defs2839">
    <inkscape:perspective
       sodipodi:type="inkscape:persp3d"
       inkscape:vp_x="0 : 40 : 1"
       inkscape:vp_y="0 : 1000 : 0"
       inkscape:vp_z="80 : 40 : 1"
       inkscape:persp3d-origin="40 : 26.666667 : 1"
       id="perspective3102" />
  </defs>
  <g
     transform="translate(0,16)"
     id="layer1">
    <rect
       width="5"
       height="5"
       x="75"
       y="0"
       transform="translate(0,-16)"
       id="rect2872"
       style="fill:#ff0000;stroke:none" />
    <rect
       width="6.727272"
       height="0"
       x="50"
       y="31.09091"
       transform="translate(0,-16)"
       id="rect2897"
       style="fill:#000000;stroke:none" />
    <rect
       width="10"
       height="5"
       x="40"
       y="40"
       transform="translate(0,-16)"
       id="rect2907"
       style="fill:none;stroke:none" />
    <rect
       width="55"
       height="55"
       x="30"
       y="0"
       transform="translate(0,-16)"
       id="rect2956"
       style="fill:none;stroke:none" />
    <rect
       width="55"
       height="60"
       x="35"
       y="0"
       transform="translate(0,-16)"
       id="rect2958"
       style="fill:none;stroke:none" />
    <rect
       width="10"
       height="5"
       x="70"
       y="5"
       transform="translate(0,-16)"
       id="rect2962"
       style="fill:#ff0000;stroke:none" />
    <rect
       width="15"
       height="5"
       x="65"
       y="10"
       transform="translate(0,-16)"
       id="rect2964"
       style="fill:#ff0000;stroke:none" />
    <rect
       width="10"
       height="5"
       x="60"
       y="15"
       transform="translate(0,-16)"
       id="rect2966"
       style="fill:#ff0000;stroke:none" />
    <rect
       width="5"
       height="5"
       x="75"
       y="15"
       transform="translate(0,-16)"
       id="rect2968"
       style="fill:#ff0000;stroke:none" />
    <rect
       width="25"
       height="5"
       x="55"
       y="20"
       transform="translate(0,-16)"
       id="rect2970"
       style="fill:#ff0000;stroke:none" />
    <rect
       width="10"
       height="5"
       x="50"
       y="25"
       transform="translate(0,-16)"
       id="rect2972"
       style="fill:#ff0000;stroke:none" />
    <rect
       width="5"
       height="5"
       x="75"
       y="25"
       transform="translate(0,-16)"
       id="rect2974"
       style="fill:#ff0000;stroke:none" />
    <rect
       width="15"
       height="5"
       x="45"
       y="30"
       transform="translate(0,-16)"
       id="rect2976"
       style="fill:#ff0000;stroke:none" />
    <rect
       width="10"
       height="5"
       x="70"
       y="30"
       transform="translate(0,-16)"
       id="rect2978"
       style="fill:#ff0000;stroke:none" />
    <rect
       width="10"
       height="5"
       x="40"
       y="35"
       transform="translate(0,-16)"
       id="rect2980"
       style="fill:#ff0000;stroke:none" />
    <rect
       width="5"
       height="5"
       x="55"
       y="35"
       transform="translate(0,-16)"
       id="rect2982"
       style="fill:#ff0000;stroke:none" />
    <rect
       width="15"
       height="5"
       x="65"
       y="35"
       transform="translate(0,-16)"
       id="rect2984"
       style="fill:#ff0000;stroke:none" />
    <rect
       width="35"
       height="5"
       x="35"
       y="40"
       transform="translate(0,-16)"
       id="rect2986"
       style="fill:#ff0000;stroke:none" />
    <rect
       width="5"
       height="5"
       x="75"
       y="40"
       transform="translate(0,-16)"
       id="rect2988"
       style="fill:#ff0000;stroke:none" />
    <rect
       width="10"
       height="5"
       x="30"
       y="45"
       transform="translate(0,-16)"
       id="rect2990"
       style="fill:#ff0000;stroke:none" />
    <rect
       width="15"
       height="5"
       x="65"
       y="45"
       transform="translate(0,-16)"
       id="rect2992"
       style="fill:#ff0000;stroke:none" />
    <rect
       width="15"
       height="5"
       x="25"
       y="50"
       transform="translate(0,-16)"
       id="rect2994"
       style="fill:#ff0000;stroke:none" />
    <rect
       width="10"
       height="5"
       x="60"
       y="34"
       id="rect2996"
       style="fill:#ff0000;stroke:none" />
    <rect
       width="5"
       height="5"
       x="75"
       y="50"
       transform="translate(0,-16)"
       id="rect2998"
       style="fill:#ff0000;stroke:none" />
    <rect
       width="10"
       height="5"
       x="20"
       y="55"
       transform="translate(0,-16)"
       id="rect3000"
       style="fill:#ff0000;stroke:none" />
    <rect
       width="5"
       height="5"
       x="35"
       y="55"
       transform="translate(0,-16)"
       id="rect3002"
       style="fill:#ff0000;stroke:none" />
    <rect
       width="25"
       height="5"
       x="55"
       y="55"
       transform="translate(0,-16)"
       id="rect3004"
       style="fill:#ff0000;stroke:none" />
    <rect
       width="5"
       height="5"
       x="75"
       y="60"
       transform="translate(0,-16)"
       id="rect3006"
       style="fill:#ff0000;stroke:none" />
    <rect
       width="10"
       height="5"
       x="50"
       y="44"
       id="rect3008"
       style="fill:#ff0000;stroke:none" />
    <rect
       width="25"
       height="5"
       x="15"
       y="60"
       transform="translate(0,-16)"
       id="rect3012"
       style="fill:#ff0000;stroke:none" />
    <rect
       width="10"
       height="5"
       x="10"
       y="65"
       transform="translate(0,-16)"
       id="rect3014"
       style="fill:#ff0000;stroke:none" />
    <rect
       width="5"
       height="5"
       x="35"
       y="65"
       transform="translate(0,-16)"
       id="rect3016"
       style="fill:#ff0000;stroke:none" />
    <rect
       width="15"
       height="5"
       x="45"
       y="65"
       transform="translate(0,-16)"
       id="rect3018"
       style="fill:#ff0000;stroke:none" />
    <rect
       width="10"
       height="5"
       x="70"
       y="65"
       transform="translate(0,-16)"
       id="rect3020"
       style="fill:#ff0000;stroke:none" />
    <rect
       width="15"
       height="5"
       x="65"
       y="70"
       transform="translate(0,-16)"
       id="rect3022"
       style="fill:#ff0000;stroke:none" />
    <rect
       width="15"
       height="5"
       x="5"
       y="70"
       transform="translate(0,-16)"
       id="rect3024"
       style="fill:#ff0000;stroke:none" />
    <rect
       width="20"
       height="5"
       x="30"
       y="70"
       transform="translate(0,-16)"
       id="rect3026"
       style="fill:#ff0000;stroke:none" />
    <rect
       width="5"
       height="5"
       x="55"
       y="70"
       transform="translate(0,-16)"
       id="rect3028"
       style="fill:#ff0000;stroke:none" />
    <rect
       width="5"
       height="5"
       x="75"
       y="75"
       transform="translate(0,-16)"
       id="rect3032"
       style="fill:#ff0000;stroke:none" />
    <rect
       width="30"
       height="5"
       x="45"
       y="75"
       transform="translate(0,-16)"
       id="rect3034"
       style="fill:#ff0000;stroke:none" />
    <rect
       width="10"
       height="5"
       x="25"
       y="75"
       transform="translate(0,-16)"
       id="rect3036"
       style="fill:#ff0000;stroke:none" />
    <rect
       width="10"
       height="5"
       x="0"
       y="75"
       transform="translate(0,-16)"
       id="rect3038"
       style="fill:#ff0000;stroke:none" />
    <rect
       width="5"
       height="5"
       x="15"
       y="75"
       transform="translate(0,-16)"
       id="rect3040"
       style="fill:#ff0000;stroke:none" />
  </g>
</svg>
